<?xml version="1.0" encoding="iso-8859-1"?>
<!-- Generator: Adobe Illustrator 19.0.0, SVG Export Plug-In . SVG Version: 6.00 Build 0)  -->
<svg version="1.1" id="Layer_1" xmlns="http://www.w3.org/2000/svg" xmlns:xlink="http://www.w3.org/1999/xlink" x="0px" y="0px"
	 viewBox="0 0 512 512" style="enable-background:new 0 0 512 512;" xml:space="preserve">
<g>
	<g>
		<g>
			<path d="M438.185,152.206l0.012,0.002l-41.974-90.755V11.636C396.222,5.21,391.012,0,384.586,0h-250.18
				c-6.427,0-11.636,5.21-11.636,11.636v49.429l-48.613,90.443c-0.909,1.658-1.428,3.561-1.428,5.585v343.27
				c0,6.427,5.21,11.636,11.636,11.636h343.27c6.427,0,11.636-5.21,11.636-11.636v-343.27
				C439.272,155.346,438.876,153.693,438.185,152.206z M409.434,145.457h-55.422L383.8,90.035L409.434,145.457z M146.043,23.273
				H372.95v29.091H146.043V23.273z M161.916,488.727H96.001V378.692l81.623,49.582L161.916,488.727z M108.737,359.197
				c14.527-23.226,24.145-47.194,27.11-68.224c3.277-23.278,17.302-38.433,28.809-47.183v38.195
				c-0.001,5.823,4.304,10.75,10.075,11.532l90.586,12.266c3.051,0.411,5.853,1.921,7.892,4.255c2.035,2.33,3.156,5.314,3.156,8.404
				c0,20.751-16.876,37.632-37.62,37.632h-33.361c-5.299,0-9.929,3.58-11.263,8.71l-10.385,39.972L108.737,359.197z
				 M322.909,157.174v331.554H185.961l28.42-109.381h24.362c33.577,0,60.893-27.321,60.893-60.904c0-8.72-3.16-17.141-8.899-23.712
				c-5.748-6.583-13.674-10.849-22.307-12.011l-80.502-10.901v-48.399c0-3.869-1.924-7.486-5.132-9.649
				c-3.208-2.162-7.282-2.589-10.869-1.138c-2.103,0.851-51.574,21.45-59.125,75.094c-1.998,14.167-7.936,30.557-16.8,47.043V168.73
				h129.577c6.427,0,11.636-5.21,11.636-11.636c0-6.427-5.21-11.636-11.636-11.636H103.83l37.527-69.818h223.759l-40.82,75.945
				C323.338,153.366,322.894,155.285,322.909,157.174z M415.999,488.727h-69.818V168.73h69.818V488.727z"/>
			<path d="M278.524,145.454h-1.164c-6.427,0-11.636,5.21-11.636,11.636s5.21,11.636,11.636,11.636h1.164
				c6.427,0,11.636-5.21,11.636-11.636S284.951,145.454,278.524,145.454z"/>
		</g>
	</g>
</g>
<g>
</g>
<g>
</g>
<g>
</g>
<g>
</g>
<g>
</g>
<g>
</g>
<g>
</g>
<g>
</g>
<g>
</g>
<g>
</g>
<g>
</g>
<g>
</g>
<g>
</g>
<g>
</g>
<g>
</g>
</svg>
